/* XPM */
static char * close_xpm[] = {
"20 20 38 1",
" 	c None",
".	c #1F1F1F",
"+	c #000000",
"@	c #808080",
"#	c #878787",
"$	c #1E1E1E",
"%	c #1D1D1D",
"&	c #868686",
"*	c #848484",
"=	c #212121",
"-	c #828282",
";	c #202020",
">	c #494949",
",	c #1C1C1C",
"'	c #151515",
")	c #7E7E7E",
"!	c #131313",
"~	c #141414",
"{	c #7D7D7D",
"]	c #101010",
"^	c #111111",
"/	c #7B7B7B",
"(	c #0F0F0F",
"_	c #797979",
":	c #767676",
"<	c #0D0D0D",
"[	c #050505",
"}	c #757575",
"|	c #040404",
"1	c #020202",
"2	c #737373",
"3	c #626262",
"4	c #585858",
"5	c #595959",
"6	c #575757",
"7	c #5C5C5C",
"8	c #616161",
"9	c #787878",
".......+@...........",
".......+#...........",
".......+#$$$$$%%%$..",
".......+&.$$$$$$$$$.",
".......+*....**.....",
"=======+-===-++-==;;",
"%%%%%%%+@;;@+>>+@%,,",
"''''''''+))+''+)''''",
"!!!~!!!!!++!!+{!!~~~",
"]]]]]]]^^^^^+/^^^^]]",
"((((((((((((+_((((((",
"]]]]]]]]]++]]+:](((<",
"[[[[[[[[+}}+[[+}||||",
"1111111+2112+11+2111",
"+++++++3++++3+++3+++",
"+++++45++++++44+5+++",
"+++++6++++++++++6+++",
"+++++7++++++++++7+++",
"+++++8++++++++++8+++",
"+++++9++++++++++9+++"};
