/* XPM */
static char * max_xpm[] = {
"20 20 36 1",
" 	c None",
".	c #1F1F1F",
"+	c #000000",
"@	c #808080",
"#	c #878787",
"$	c #1E1E1E",
"%	c #1D1D1D",
"&	c #868686",
"*	c #848484",
"=	c #212121",
"-	c #828282",
";	c #202020",
">	c #1C1C1C",
",	c #151515",
"'	c #7E7E7E",
")	c #131313",
"!	c #141414",
"~	c #7D7D7D",
"{	c #101010",
"]	c #111111",
"^	c #7B7B7B",
"/	c #0F0F0F",
"(	c #797979",
"_	c #767676",
":	c #0D0D0D",
"<	c #050505",
"[	c #757575",
"}	c #040404",
"|	c #020202",
"1	c #737373",
"2	c #626262",
"3	c #585858",
"4	c #575757",
"5	c #5C5C5C",
"6	c #616161",
"7	c #787878",
".........+@.........",
".........+#.........",
".......$$+#$$$%%%$..",
".........+&$$$$$$$$.",
".........+*****.....",
"=========++++++-==;;",
"%%%%%%%%$;;;;;+@$%>>",
",,,,,,,,,,,,,,+',,,,",
")))!))))))))))+~)!!!",
"{{{{{{{]]]]]]]+^]]{{",
"////////////+/+(////",
"{{{{{{{{{{{+_++_///:",
"<<<<<<<<<<+[<[[<}}}}",
"|||||||||+1|||||||||",
"+++++++++2++++++++++",
"++++++++3+++++++++++",
"++++++++4+++++++++++",
"++++++++5+++++++++++",
"++++++++6+++++++++++",
"++++++++7+++++++++++"};
