/* XPM */
static char * button_focused_xpm[] = {
"14 14 5 1",
" 	c None",
".	c #000000",
"+	c #5F5F5F",
"@	c #E1E1E1",
"#	c #FFFFFF",
"..............",
"..............",
"..............",
"..............",
"..............",
".....+@@+.....",
".....@##@.....",
".....@##@.....",
".....+@@+.....",
"..............",
"..............",
"..............",
"..............",
".............."};
