/* XPM */
static char * button_pressed_xpm[] = {
"14 14 8 1",
" 	c None",
".	c #FFFFFF",
"+	c #A0A0A0",
"@	c #1E1E1E",
"#	c #000000",
"$	c #D0D0D0",
"%	c #8F8F8F",
"&	c #7F7F7F",
"..............",
"..............",
"..............",
".....+@@+.....",
".....@##@.....",
".....@##@.....",
".....+@@+.....",
"..............",
".....$%%$.....",
".....%&&%.....",
".....%&&%.....",
".....$%%$.....",
"..............",
".............."};
