/* XPM */
static char * min_xpm[] = {
"20 20 49 1",
" 	c None",
".	c #1F1F1F",
"+	c #000000",
"@	c #8A8A8A",
"#	c #808080",
"$	c #8D8D8D",
"%	c #878787",
"&	c #1E1E1E",
"*	c #8E8E8E",
"=	c #1D1D1D",
"-	c #8C8C8C",
";	c #868686",
">	c #848484",
",	c #212121",
"'	c #828282",
")	c #202020",
"!	c #1C1C1C",
"~	c #151515",
"{	c #7E7E7E",
"]	c #131313",
"^	c #141414",
"/	c #7D7D7D",
"(	c #767676",
"_	c #101010",
":	c #111111",
"<	c #7B7B7B",
"[	c #6F6F6F",
"}	c #0F0F0F",
"|	c #797979",
"1	c #676767",
"2	c #0D0D0D",
"3	c #616161",
"4	c #050505",
"5	c #757575",
"6	c #040404",
"7	c #5A5A5A",
"8	c #020202",
"9	c #737373",
"0	c #545454",
"a	c #626262",
"b	c #4D4D4D",
"c	c #585858",
"d	c #4A4A4A",
"e	c #575757",
"f	c #4B4B4B",
"g	c #5C5C5C",
"h	c #494949",
"i	c #525252",
"j	c #787878",
".........+@...+#....",
".........+$...+%....",
".......&+*&&&&+%=&..",
"..++++++-.&&&&+;&&&.",
".+@@@@@@......+>....",
"+;,,,,,,,,,,,,,+',))",
"+>======&)))))))+#!!",
"+#~~~~~~~~~~~~~~~+{~",
"+{]^]]]]]]]]]]]]+/^^",
"+(_____::::::::+<:__",
"+[}}}}}}}}}}}}+|}}}}",
"+1___________+(_}}}2",
"+34444444444+5446666",
"+788888888888+988888",
"+0++++++++++++a+++++",
"+b++++++cccccc++++++",
"+d++++++e+++++++++++",
"+f++++++g+++++++++++",
"+h++++++3+++++++++++",
"+i++++++j+++++++++++"};
